<?xml version="1.0" encoding="utf-8"?>
<!-- Generator: Adobe Illustrator 16.0.0, SVG Export Plug-In . SVG Version: 6.00 Build 0)  -->
<!DOCTYPE svg PUBLIC "-//W3C//DTD SVG 1.1//EN" "http://www.w3.org/Graphics/SVG/1.1/DTD/svg11.dtd">
<svg version="1.1" id="Layer_1" xmlns="http://www.w3.org/2000/svg" xmlns:xlink="http://www.w3.org/1999/xlink" x="0px" y="0px"
	 width="197.602px" height="68.565px" viewBox="0 0 197.602 68.565" enable-background="new 0 0 197.602 68.565"
	 xml:space="preserve">
<g>
	<defs>
		<path id="SVGID_1_" d="M79.877,22.032c-0.128,6.047,5.055,11.071,11.231,10.943c4.063,0,7.519-1.952,9.342-5.247l-3.264-2.305
			c-1.504,2.368-3.52,3.551-6.047,3.551c-3.936,0-6.816-2.878-6.816-6.911c0-4.031,2.88-6.975,6.816-6.975
			c2.527,0,4.543,1.184,6.047,3.552l3.264-2.304c-1.887-3.296-5.312-5.247-9.311-5.247c-0.077-0.002-0.153-0.003-0.229-0.003
			C84.868,11.087,79.782,16.059,79.877,22.032"/>
	</defs>
	<clipPath id="SVGID_2_">
		<use xlink:href="#SVGID_1_"  overflow="visible"/>
	</clipPath>
	
		<linearGradient id="SVGID_3_" gradientUnits="userSpaceOnUse" x1="-327.7568" y1="341.3921" x2="-326.7568" y2="341.3921" gradientTransform="matrix(-11.0456 19.1316 19.1316 11.0456 -10055.7822 2511.6846)">
		<stop  offset="0" style="stop-color:#18A4B5"/>
		<stop  offset="1" style="stop-color:#194E9E"/>
	</linearGradient>
	<polygon clip-path="url(#SVGID_2_)" fill="url(#SVGID_3_)" points="109.984,16.59 95.275,42.068 70.215,27.599 84.924,2.122 	"/>
</g>
<g>
	<defs>
		<path id="SVGID_4_" d="M107.013,24.688c0-2.528,1.694-4.352,4.096-4.352c2.336,0,4.096,1.888,4.096,4.352s-1.76,4.286-4.096,4.286
			C108.707,28.974,107.013,27.152,107.013,24.688 M102.629,24.655c-0.097,4.512,3.808,8.384,8.446,8.288
			c4.641,0.096,8.64-3.776,8.543-8.288c0.097-4.511-3.87-8.319-8.51-8.255c-0.058-0.002-0.113-0.002-0.17-0.002
			C106.373,16.398,102.534,20.199,102.629,24.655"/>
	</defs>
	<clipPath id="SVGID_5_">
		<use xlink:href="#SVGID_4_"  overflow="visible"/>
	</clipPath>
	
		<linearGradient id="SVGID_6_" gradientUnits="userSpaceOnUse" x1="-328.0293" y1="344.6206" x2="-327.0293" y2="344.6206" gradientTransform="matrix(-8.3542 14.4699 14.4699 8.3542 -7611.7686 1884.9941)">
		<stop  offset="0" style="stop-color:#18A4B5"/>
		<stop  offset="1" style="stop-color:#194E9E"/>
	</linearGradient>
	<polygon clip-path="url(#SVGID_5_)" fill="url(#SVGID_6_)" points="126.947,20.512 115.419,40.48 95.3,28.863 106.827,8.896 	"/>
</g>
<g>
	<defs>
		<path id="SVGID_7_" d="M126.468,24.655c0-2.592,1.793-4.351,4.096-4.351c2.176,0,4,1.568,4,4.384c0,2.847-1.824,4.351-4,4.351
			C128.228,29.039,126.468,27.311,126.468,24.655 M134.499,8.593v9.695c-1.151-1.248-2.719-1.888-4.734-1.888
			c-4.417,0-7.68,3.52-7.68,8.288c0,4.767,3.263,8.287,7.68,8.287c2.176,0,4.031-0.833,5.086-2.336v1.952h3.969V8.593H134.499z"/>
	</defs>
	<clipPath id="SVGID_8_">
		<use xlink:href="#SVGID_7_"  overflow="visible"/>
	</clipPath>
	
		<linearGradient id="SVGID_9_" gradientUnits="userSpaceOnUse" x1="-327.6104" y1="339.5981" x2="-326.6104" y2="339.5981" gradientTransform="matrix(-13.3395 23.1046 23.1046 13.3395 -12078.6094 3047.2925)">
		<stop  offset="0" style="stop-color:#18A4B5"/>
		<stop  offset="1" style="stop-color:#194E9E"/>
	</linearGradient>
	<polygon clip-path="url(#SVGID_8_)" fill="url(#SVGID_9_)" points="149.376,14.688 134.636,40.221 111.526,26.879 126.269,1.347 	
		"/>
</g>
<g>
	<defs>
		<path id="SVGID_10_" d="M143.106,32.591h4.32V16.753h-4.32V32.591z M142.5,10.992c0,1.504,1.215,2.656,2.752,2.656
			c1.534,0,2.782-1.152,2.782-2.656c0-1.535-1.248-2.687-2.782-2.687C143.715,8.305,142.5,9.457,142.5,10.992"/>
	</defs>
	<clipPath id="SVGID_11_">
		<use xlink:href="#SVGID_10_"  overflow="visible"/>
	</clipPath>
	
		<linearGradient id="SVGID_12_" gradientUnits="userSpaceOnUse" x1="-327.7412" y1="341.2358" x2="-326.7412" y2="341.2358" gradientTransform="matrix(-11.2496 19.4849 19.4849 11.2496 -10185.2002 2558.2505)">
		<stop  offset="0" style="stop-color:#18A4B5"/>
		<stop  offset="1" style="stop-color:#194E9E"/>
	</linearGradient>
	<polygon clip-path="url(#SVGID_11_)" fill="url(#SVGID_12_)" points="158.551,14.376 146.651,34.988 131.983,26.52 143.884,5.908 	
		"/>
</g>
<g>
	<defs>
		<rect id="SVGID_13_" x="151.716" y="8.593" width="4.32" height="23.998"/>
	</defs>
	<clipPath id="SVGID_14_">
		<use xlink:href="#SVGID_13_"  overflow="visible"/>
	</clipPath>
	
		<linearGradient id="SVGID_15_" gradientUnits="userSpaceOnUse" x1="-327.7256" y1="341.0562" x2="-326.7256" y2="341.0562" gradientTransform="matrix(-11.4715 19.8693 19.8693 11.4715 -10376.4717 2609.8696)">
		<stop  offset="0" style="stop-color:#18A4B5"/>
		<stop  offset="1" style="stop-color:#194E9E"/>
	</linearGradient>
	<polygon clip-path="url(#SVGID_14_)" fill="url(#SVGID_15_)" points="166.427,14.593 154.956,34.462 141.324,26.592 152.796,6.723 
			"/>
</g>
<g>
	<defs>
		<path id="SVGID_16_" d="M160.323,32.591h4.32V16.753h-4.32V32.591z M159.717,10.992c0,1.504,1.215,2.656,2.751,2.656
			c1.535,0,2.784-1.152,2.784-2.656c0-1.535-1.249-2.687-2.784-2.687C160.932,8.305,159.717,9.457,159.717,10.992"/>
	</defs>
	<clipPath id="SVGID_17_">
		<use xlink:href="#SVGID_16_"  overflow="visible"/>
	</clipPath>
	
		<linearGradient id="SVGID_18_" gradientUnits="userSpaceOnUse" x1="-327.7412" y1="341.2358" x2="-326.7412" y2="341.2358" gradientTransform="matrix(-11.2496 19.4849 19.4849 11.2496 -10167.9814 2558.2505)">
		<stop  offset="0" style="stop-color:#18A4B5"/>
		<stop  offset="1" style="stop-color:#194E9E"/>
	</linearGradient>
	<polygon clip-path="url(#SVGID_17_)" fill="url(#SVGID_18_)" points="175.769,14.376 163.868,34.988 149.2,26.52 161.101,5.908 	
		"/>
</g>
<g>
	<defs>
		<path id="SVGID_19_" d="M169.796,12.753v3.999h-2.497V20.4h2.497v6.623c0,3.968,2.335,5.952,6.336,5.952
			c0.959,0,1.951-0.128,2.975-0.384v-3.617c-1.119,0.098-1.791,0.13-2.048,0.13c-2.048,0-2.944-0.673-2.944-2.464V20.4h4.48v-3.648
			h-4.48v-3.999H169.796z"/>
	</defs>
	<clipPath id="SVGID_20_">
		<use xlink:href="#SVGID_19_"  overflow="visible"/>
	</clipPath>
	
		<linearGradient id="SVGID_21_" gradientUnits="userSpaceOnUse" x1="-327.9692" y1="343.8608" x2="-326.9692" y2="343.8608" gradientTransform="matrix(-8.8308 15.2954 15.2954 8.8308 -7977.9258 1994.7485)">
		<stop  offset="0" style="stop-color:#18A4B5"/>
		<stop  offset="1" style="stop-color:#194E9E"/>
	</linearGradient>
	<polygon clip-path="url(#SVGID_20_)" fill="url(#SVGID_21_)" points="187.863,17.809 176.155,38.087 158.542,27.919 170.251,7.64 	
		"/>
</g>
<g>
	<defs>
		<path id="SVGID_22_" d="M193.058,16.752l-4.127,10.4l-3.872-10.4h-4.575l6.08,14.879l-0.481,1.087
			c-0.735,1.665-1.759,2.144-3.296,2.144c-0.256,0-0.863-0.03-1.855-0.128v3.617c0.96,0.255,1.889,0.384,2.784,0.384
			c2.944,0,4.864-1.472,6.303-4.768l7.584-17.215H193.058z"/>
	</defs>
	<clipPath id="SVGID_23_">
		<use xlink:href="#SVGID_22_"  overflow="visible"/>
	</clipPath>
	
		<linearGradient id="SVGID_24_" gradientUnits="userSpaceOnUse" x1="-327.6011" y1="339.7749" x2="-326.6011" y2="339.7749" gradientTransform="matrix(-13.5202 23.4177 23.4177 13.5202 -12190.0557 3093.6128)">
		<stop  offset="0" style="stop-color:#18A4B5"/>
		<stop  offset="1" style="stop-color:#194E9E"/>
	</linearGradient>
	<polygon clip-path="url(#SVGID_23_)" fill="url(#SVGID_24_)" points="207.12,22.248 193.322,46.148 170.964,33.239 184.763,9.339 	
		"/>
</g>
<path d="M80.141,57.65c0.98,1.541,2.42,2.521,4.201,2.521c1.901,0,3.261-1.061,3.261-2.761c0-1.562-0.721-2.08-2.621-3.021
	l-1.521-0.721c-0.62-0.3-1.099-0.561-1.48-0.8c-0.74-0.481-1.38-1.3-1.38-2.562c0-0.979,0.36-1.74,1.061-2.279
	c0.719-0.561,1.599-0.842,2.66-0.842c1.66,0,2.961,0.74,3.821,2.002l-0.481,0.379c-0.86-1.18-1.96-1.76-3.3-1.76
	c-0.821,0-1.54,0.199-2.16,0.601c-0.621,0.399-0.921,1.021-0.921,1.86c0.08,1.561,0.82,2.021,2.481,2.84l1.52,0.721
	c2.02,0.961,3.001,1.82,3.001,3.581c0,2.021-1.721,3.381-3.961,3.381c-2,0-3.601-1.04-4.661-2.78L80.141,57.65z"/>
<path d="M99.081,47.188c3.642-0.06,6.783,3.041,6.722,6.802c0.062,3.741-3.08,6.881-6.722,6.801c-3.66,0.08-6.741-3.06-6.68-6.801
	C92.34,50.208,95.421,47.109,99.081,47.188 M99.103,47.808c-3.342-0.061-6.082,2.74-6.021,6.162c-0.041,3.42,2.64,6.261,6.021,6.201
	c3.34,0.06,6.08-2.781,6.021-6.201C105.183,50.589,102.442,47.748,99.103,47.808"/>
<polygon points="110.501,47.388 111.14,47.388 111.14,60.011 117.821,60.011 117.821,60.591 110.501,60.591 "/>
<path d="M121.44,47.388h0.641v8.162c0,2.9,1.699,4.621,4.32,4.621c2.58,0,4.28-1.721,4.28-4.621v-8.162h0.642v8.162
	c0,3.24-1.922,5.24-4.922,5.24c-3.061,0-4.961-2.02-4.961-5.24V47.388z"/>
<polygon points="140.183,47.968 135.201,47.968 135.201,47.388 145.803,47.388 145.803,47.968 140.821,47.968 140.821,60.591 
	140.183,60.591 "/>
<rect x="149.901" y="47.388" width="0.64" height="13.203"/>
<path d="M161.921,47.188c3.642-0.06,6.783,3.041,6.722,6.802c0.062,3.741-3.08,6.881-6.722,6.801c-3.66,0.08-6.741-3.06-6.68-6.801
	C155.18,50.208,158.261,47.109,161.921,47.188 M161.942,47.808c-3.342-0.061-6.082,2.74-6.021,6.162
	c-0.041,3.42,2.64,6.261,6.021,6.201c3.34,0.06,6.08-2.781,6.021-6.201C168.022,50.589,165.282,47.748,161.942,47.808"/>
<polygon points="183.302,47.388 183.302,60.791 183.002,60.791 173.979,48.769 173.979,60.591 173.341,60.591 173.341,47.188 
	173.64,47.188 182.662,59.311 182.662,47.388 "/>
<path d="M188.341,57.65c0.979,1.541,2.42,2.521,4.2,2.521c1.901,0,3.261-1.061,3.261-2.761c0-1.562-0.721-2.08-2.621-3.021
	l-1.521-0.721c-0.62-0.3-1.099-0.561-1.479-0.8c-0.74-0.481-1.381-1.3-1.381-2.562c0-0.979,0.36-1.74,1.062-2.279
	c0.719-0.561,1.599-0.842,2.659-0.842c1.66,0,2.962,0.74,3.822,2.002l-0.481,0.379c-0.86-1.18-1.96-1.76-3.3-1.76
	c-0.821,0-1.541,0.199-2.16,0.601c-0.621,0.399-0.922,1.021-0.922,1.86c0.08,1.561,0.82,2.021,2.481,2.84l1.521,0.721
	c2.02,0.961,3.001,1.82,3.001,3.581c0,2.021-1.722,3.381-3.962,3.381c-2,0-3.6-1.04-4.66-2.78L188.341,57.65z"/>
<g>
	<defs>
		<path id="SVGID_25_" d="M3.684,18.35c-4.912,3.44-4.912,10.715,0,14.155L29.13,50.322c3.673-5.246,2.399-12.475-2.847-16.148
			l-12.491-8.746l12.491-8.747c5.246-3.673,6.52-10.902,2.847-16.148L3.684,18.35z"/>
	</defs>
	<clipPath id="SVGID_26_">
		<use xlink:href="#SVGID_25_"  overflow="visible"/>
	</clipPath>
	
		<linearGradient id="SVGID_27_" gradientUnits="userSpaceOnUse" x1="-327.3433" y1="336.4839" x2="-326.3433" y2="336.4839" gradientTransform="matrix(-21.5593 37.3418 37.3418 21.5593 -19592.3633 4970.1812)">
		<stop  offset="0" style="stop-color:#18A4B5"/>
		<stop  offset="1" style="stop-color:#194E9E"/>
	</linearGradient>
	<polygon clip-path="url(#SVGID_26_)" fill="url(#SVGID_27_)" points="54.362,12.98 24.295,65.058 -22.788,37.875 7.28,-14.203 	"/>
</g>
<g>
	<defs>
		<path id="SVGID_28_" d="M33.726,34.924l12.491,8.746l-12.491,8.746c-5.245,3.674-6.52,10.902-2.847,16.149l25.446-17.817
			c4.912-3.44,4.912-10.715,0-14.155L30.879,18.775C27.206,24.021,28.481,31.251,33.726,34.924"/>
	</defs>
	<clipPath id="SVGID_29_">
		<use xlink:href="#SVGID_28_"  overflow="visible"/>
	</clipPath>
	
		<linearGradient id="SVGID_30_" gradientUnits="userSpaceOnUse" x1="-327.3433" y1="336.6987" x2="-326.3436" y2="336.6987" gradientTransform="matrix(-21.5593 37.3418 37.3418 21.5593 -19578.5664 4995.3687)">
		<stop  offset="0" style="stop-color:#18A4B5"/>
		<stop  offset="1" style="stop-color:#194E9E"/>
	</linearGradient>
	<polygon clip-path="url(#SVGID_29_)" fill="url(#SVGID_30_)" points="82.796,31.223 52.729,83.3 5.646,56.118 35.713,4.039 	"/>
</g>
</svg>
